<?xml version="1.0" encoding="utf-8"?>
<!-- Generator: Adobe Illustrator 24.0.0, SVG Export Plug-In . SVG Version: 6.00 Build 0)  -->
<svg version="1.1" id="Capa_1" xmlns="http://www.w3.org/2000/svg" xmlns:xlink="http://www.w3.org/1999/xlink" x="0px" y="0px"
	 viewBox="0 0 19.51 40.4" style="enable-background:new 0 0 19.51 40.4;" xml:space="preserve">
<style type="text/css">
	.st0{clip-path:url(#SVGID_2_);fill:#F1872B;}
</style>
<g>
	<defs>
		<rect id="SVGID_1_" width="19.51" height="40.4"/>
	</defs>
	<clipPath id="SVGID_2_">
		<use xlink:href="#SVGID_1_"  style="overflow:visible;"/>
	</clipPath>
	<path class="st0" d="M10.35,40.4c-2.9-0.58-5.07-2.12-6.81-4.31c-4.2-5.29-4.46-11.17-1.81-17.24c1.39-3.18,3.15-6.18,4.73-9.26
		C6.7,9.1,6.9,8.59,7.13,8.1c1.12-2.37,1.2-4.75,0.12-7.16C7.15,0.71,7.09,0.45,6.95,0c1.93,0.84,3.35,2.05,4.36,3.77
		c1.46,2.47,1.71,5.22,1.46,8.05c-0.36,4.04-1.92,7.64-3.47,11.27c-0.84,1.96-1.5,4.05-1.91,6.16c-0.72,3.71,0.32,7.08,2.32,10.14
		C9.89,39.67,10.06,39.95,10.35,40.4"/>
	<path class="st0" d="M17.41,40.37c-2.55-0.59-4.44-2.2-5.82-4.47c-2.25-3.68-2.23-7.59-0.56-11.48c1-2.33,2.31-4.51,3.44-6.77
		c0.79-1.59,1.66-3.19,1.33-5.1c-0.14-0.8-0.43-1.57-0.65-2.36c1.5,0.29,3.26,2.17,3.88,4.22c0.91,3.04,0.41,6.02-0.57,8.91
		c-0.62,1.81-1.44,3.53-2.16,5.3c-1.61,3.95-1.47,7.74,0.99,11.29c0.06,0.1,0.1,0.21,0.15,0.32C17.44,40.24,17.43,40.27,17.41,40.37
		"/>
</g>
<g>
</g>
<g>
</g>
<g>
</g>
<g>
</g>
<g>
</g>
<g>
</g>
<g>
</g>
<g>
</g>
<g>
</g>
<g>
</g>
<g>
</g>
<g>
</g>
<g>
</g>
<g>
</g>
<g>
</g>
</svg>
