<?xml version="1.0" encoding="utf-8"?>
<!-- Generator: Adobe Illustrator 24.0.0, SVG Export Plug-In . SVG Version: 6.00 Build 0)  -->
<svg version="1.1" id="Capa_1" xmlns="http://www.w3.org/2000/svg" xmlns:xlink="http://www.w3.org/1999/xlink" x="0px" y="0px"
	 viewBox="0 0 720 720" style="enable-background:new 0 0 720 720;" xml:space="preserve">
<style type="text/css">
	.st0{fill:#FB8926;}
	.st1{fill:#F1872B;}
	.st2{fill:#264B79;}
</style>
<polygon class="st0" points="144.34,360.78 144.58,361.02 144.81,360.78 144.58,360.55 "/>
<polygon class="st0" points="135.95,372.33 136.19,372.57 136.42,372.33 136.19,372.1 "/>
<polygon class="st0" points="122.33,367.92 122.6,368.19 122.87,367.92 122.6,367.65 "/>
<polygon class="st0" points="122.26,353.64 122.6,353.98 122.94,353.64 122.6,353.3 "/>
<rect x="135.97" y="349.01" transform="matrix(0.7071 -0.7071 0.7071 0.7071 -207.0516 198.5794)" class="st0" width="0.43" height="0.43"/>
<path class="st0" d="M156.73,358.83c-1.08,0-1.95,0.88-1.95,1.95c0,1.08,0.87,1.95,1.95,1.95c1.08,0,1.95-0.87,1.95-1.95
	C158.68,359.7,157.81,358.83,156.73,358.83"/>
<path class="st0" d="M152.09,373.14c-1.06,0-1.92,0.86-1.92,1.92s0.86,1.92,1.92,1.92c1.06,0,1.92-0.86,1.92-1.92
	S153.15,373.14,152.09,373.14"/>
<path class="st0" d="M139.94,381.97c-1.06,0-1.92,0.86-1.92,1.92s0.86,1.92,1.92,1.92c1.06,0,1.92-0.86,1.92-1.92
	S141,381.97,139.94,381.97"/>
<path class="st0" d="M124.92,381.9c-1.1,0-1.99,0.89-1.99,1.99c0,1.1,0.89,1.99,1.99,1.99s1.99-0.89,1.99-1.99
	C126.91,382.79,126.02,381.9,124.92,381.9"/>
<path class="st0" d="M112.77,373.01c-1.13,0-2.05,0.92-2.05,2.05c0,1.13,0.92,2.06,2.05,2.06c1.14,0,2.06-0.92,2.06-2.06
	C114.83,373.93,113.91,373.01,112.77,373.01"/>
<path class="st0" d="M108.13,358.69c-1.15,0-2.09,0.93-2.09,2.09c0,1.15,0.93,2.09,2.09,2.09c1.15,0,2.09-0.94,2.09-2.09
	C110.22,359.63,109.29,358.69,108.13,358.69"/>
<path class="st0" d="M112.77,344.38c-1.17,0-2.12,0.95-2.12,2.12c0,1.17,0.95,2.12,2.12,2.12c1.17,0,2.12-0.95,2.12-2.12
	C114.9,345.33,113.95,344.38,112.77,344.38"/>
<path class="st0" d="M124.92,335.55c-1.17,0-2.12,0.95-2.12,2.12c0,1.17,0.95,2.12,2.12,2.12c1.17,0,2.12-0.95,2.12-2.12
	C127.04,336.5,126.09,335.55,124.92,335.55"/>
<path class="st0" d="M139.94,335.58c-1.15,0-2.09,0.94-2.09,2.09c0,1.15,0.94,2.09,2.09,2.09c1.15,0,2.09-0.93,2.09-2.09
	C142.03,336.52,141.09,335.58,139.94,335.58"/>
<path class="st0" d="M152.09,344.48c-1.12,0-2.02,0.9-2.02,2.02c0,1.12,0.9,2.02,2.02,2.02c1.12,0,2.02-0.91,2.02-2.02
	C154.11,345.38,153.2,344.48,152.09,344.48"/>
<path class="st0" d="M168.88,356.91c-2.14,0-3.87,1.74-3.87,3.87c0,2.14,1.73,3.87,3.87,3.87c2.14,0,3.87-1.73,3.87-3.87
	C172.75,358.64,171.01,356.91,168.88,356.91"/>
<path class="st0" d="M165.72,371.73c-2.14,0-3.87,1.73-3.87,3.87c0,2.14,1.74,3.87,3.87,3.87c2.14,0,3.87-1.74,3.87-3.87
	C169.6,373.46,167.86,371.73,165.72,371.73"/>
<path class="st0" d="M156.82,384.02c-2.12,0-3.84,1.72-3.84,3.84c0,2.12,1.72,3.84,3.84,3.84c2.12,0,3.84-1.72,3.84-3.84
	C160.66,385.74,158.94,384.02,156.82,384.02"/>
<path class="st0" d="M143.69,391.57c-2.14,0-3.87,1.73-3.87,3.87c0,2.14,1.73,3.87,3.87,3.87c2.14,0,3.87-1.73,3.87-3.87
	C147.57,393.3,145.83,391.57,143.69,391.57"/>
<path class="st0" d="M128.62,393.12c-2.16,0-3.91,1.75-3.91,3.91s1.75,3.91,3.91,3.91s3.91-1.75,3.91-3.91
	S130.78,393.12,128.62,393.12"/>
<path class="st0" d="M114.21,388.4c-2.18,0-3.94,1.76-3.94,3.94c0,2.18,1.76,3.94,3.94,3.94c2.18,0,3.94-1.77,3.94-3.94
	C118.15,390.16,116.39,388.4,114.21,388.4"/>
<path class="st0" d="M102.95,378.23c-2.19,0-3.97,1.78-3.97,3.97c0,2.2,1.78,3.98,3.97,3.98c2.19,0,3.97-1.78,3.97-3.98
	C106.92,380.01,105.14,378.23,102.95,378.23"/>
<path class="st0" d="M96.78,364.31c-2.23,0-4.04,1.81-4.04,4.04c0,2.23,1.81,4.04,4.04,4.04c2.23,0,4.04-1.81,4.04-4.04
	C100.82,366.13,99.02,364.31,96.78,364.31"/>
<path class="st0" d="M96.78,349.13c-2.25,0-4.08,1.82-4.08,4.08c0,2.25,1.82,4.08,4.08,4.08s4.08-1.83,4.08-4.08
	C100.86,350.95,99.03,349.13,96.78,349.13"/>
<path class="st0" d="M102.95,335.28c-2.25,0-4.08,1.82-4.08,4.08c0,2.25,1.82,4.07,4.08,4.07c2.25,0,4.08-1.82,4.08-4.07
	C107.02,337.11,105.2,335.28,102.95,335.28"/>
<path class="st0" d="M114.21,325.14c-2.25,0-4.08,1.82-4.08,4.08c0,2.25,1.82,4.08,4.08,4.08s4.08-1.83,4.08-4.08
	C118.29,326.97,116.46,325.14,114.21,325.14"/>
<path class="st0" d="M128.62,320.46c-2.25,0-4.08,1.83-4.08,4.08s1.82,4.08,4.08,4.08c2.25,0,4.08-1.82,4.08-4.08
	S130.87,320.46,128.62,320.46"/>
<path class="st0" d="M143.69,322.11c-2.22,0-4.01,1.79-4.01,4.01c0,2.21,1.79,4.01,4.01,4.01c2.21,0,4.01-1.79,4.01-4.01
	C147.7,323.9,145.91,322.11,143.69,322.11"/>
<path class="st0" d="M156.82,329.72c-2.19,0-3.97,1.78-3.97,3.97c0,2.2,1.78,3.98,3.97,3.98c2.2,0,3.97-1.78,3.97-3.98
	C160.79,331.5,159.01,329.72,156.82,329.72"/>
<path class="st0" d="M165.72,342.01c-2.18,0-3.94,1.77-3.94,3.94c0,2.18,1.76,3.94,3.94,3.94c2.18,0,3.94-1.76,3.94-3.94
	C169.67,343.78,167.9,342.01,165.72,342.01"/>
<path class="st0" d="M181.02,355.42c-2.96,0-5.36,2.4-5.36,5.35c0,2.96,2.4,5.36,5.36,5.36c2.96,0,5.35-2.4,5.35-5.36
	C186.38,357.82,183.98,355.42,181.02,355.42"/>
<path class="st0" d="M178.64,370.47c-2.94,0-5.32,2.38-5.32,5.32c0,2.94,2.38,5.32,5.32,5.32s5.32-2.38,5.32-5.32
	C183.97,372.86,181.58,370.47,178.64,370.47"/>
<path class="st0" d="M171.74,384.02c-2.94,0-5.32,2.38-5.32,5.32c0,2.94,2.38,5.32,5.32,5.32s5.32-2.38,5.32-5.32
	C177.07,386.4,174.68,384.02,171.74,384.02"/>
<path class="st0" d="M160.99,394.77c-2.94,0-5.32,2.38-5.32,5.32c0,2.94,2.38,5.32,5.32,5.32s5.32-2.38,5.32-5.32
	C166.31,397.15,163.93,394.77,160.99,394.77"/>
<path class="st0" d="M147.45,401.67c-2.94,0-5.32,2.38-5.32,5.32c0,2.94,2.38,5.32,5.32,5.32c2.94,0,5.32-2.38,5.32-5.32
	C152.77,404.06,150.38,401.67,147.45,401.67"/>
<path class="st0" d="M132.43,404.02c-2.96,0-5.36,2.4-5.36,5.36c0,2.96,2.4,5.36,5.36,5.36c2.96,0,5.36-2.4,5.36-5.36
	C137.79,406.42,135.39,404.02,132.43,404.02"/>
<path class="st0" d="M117.42,401.64c-2.96,0-5.36,2.4-5.36,5.36s2.4,5.35,5.36,5.35c2.96,0,5.35-2.4,5.35-5.35
	S120.37,401.64,117.42,401.64"/>
<path class="st0" d="M103.87,394.74c-2.96,0-5.35,2.4-5.35,5.36c0,2.96,2.4,5.35,5.35,5.35c2.96,0,5.36-2.4,5.36-5.35
	C109.22,397.14,106.83,394.74,103.87,394.74"/>
<path class="st0" d="M93.12,383.99c-2.96,0-5.36,2.4-5.36,5.35c0,2.96,2.4,5.36,5.36,5.36c2.96,0,5.35-2.4,5.35-5.36
	C98.47,386.38,96.08,383.99,93.12,383.99"/>
<path class="st0" d="M86.22,370.47c-2.94,0-5.32,2.38-5.32,5.32c0,2.94,2.38,5.32,5.32,5.32c2.94,0,5.32-2.38,5.32-5.32
	C91.54,372.86,89.16,370.47,86.22,370.47"/>
<path class="st0" d="M83.84,355.46c-2.94,0-5.32,2.38-5.32,5.32s2.38,5.32,5.32,5.32c2.94,0,5.32-2.38,5.32-5.32
	S86.78,355.46,83.84,355.46"/>
<path class="st0" d="M86.22,340.44c-2.94,0-5.32,2.38-5.32,5.32s2.38,5.32,5.32,5.32c2.94,0,5.32-2.38,5.32-5.32
	S89.16,340.44,86.22,340.44"/>
<path class="st0" d="M93.12,326.9c-2.94,0-5.32,2.38-5.32,5.32c0,2.94,2.38,5.32,5.32,5.32c2.94,0,5.32-2.38,5.32-5.32
	C98.44,329.28,96.06,326.9,93.12,326.9"/>
<path class="st0" d="M103.87,316.15c-2.94,0-5.32,2.38-5.32,5.32s2.38,5.32,5.32,5.32c2.94,0,5.32-2.38,5.32-5.32
	S106.81,316.15,103.87,316.15"/>
<path class="st0" d="M117.42,309.24c-2.94,0-5.32,2.38-5.32,5.32c0,2.94,2.38,5.32,5.32,5.32s5.32-2.38,5.32-5.32
	C122.74,311.63,120.36,309.24,117.42,309.24"/>
<path class="st0" d="M132.43,306.86c-2.94,0-5.32,2.38-5.32,5.32s2.38,5.32,5.32,5.32c2.94,0,5.32-2.38,5.32-5.32
	S135.37,306.86,132.43,306.86"/>
<path class="st0" d="M147.45,309.24c-2.94,0-5.32,2.38-5.32,5.32c0,2.94,2.38,5.32,5.32,5.32c2.94,0,5.32-2.38,5.32-5.32
	C152.77,311.63,150.38,309.24,147.45,309.24"/>
<path class="st0" d="M160.99,316.11c-2.96,0-5.36,2.4-5.36,5.36c0,2.96,2.4,5.36,5.36,5.36c2.96,0,5.35-2.4,5.35-5.36
	C166.35,318.51,163.95,316.11,160.99,316.11"/>
<path class="st0" d="M171.74,326.86c-2.96,0-5.35,2.4-5.35,5.35c0,2.96,2.4,5.36,5.35,5.36c2.96,0,5.36-2.4,5.36-5.36
	C177.1,329.26,174.7,326.86,171.74,326.86"/>
<path class="st0" d="M178.64,340.41c-2.96,0-5.35,2.4-5.35,5.36c0,2.96,2.4,5.35,5.35,5.35c2.96,0,5.36-2.4,5.36-5.35
	C184,342.81,181.6,340.41,178.64,340.41"/>
<path class="st0" d="M193.17,356.34c-2.46,0-4.45,1.99-4.45,4.44c0,2.46,1.99,4.45,4.45,4.45c2.45,0,4.44-1.99,4.44-4.45
	C197.62,358.32,195.63,356.34,193.17,356.34"/>
<path class="st0" d="M191.26,371.41c-2.48,0-4.48,2.01-4.48,4.48c0,2.48,2,4.48,4.48,4.48c2.47,0,4.48-2.01,4.48-4.48
	C195.74,373.41,193.74,371.41,191.26,371.41"/>
<path class="st0" d="M185.66,385.56c-2.48,0-4.48,2.01-4.48,4.48c0,2.48,2.01,4.48,4.48,4.48c2.47,0,4.48-2.01,4.48-4.48
	C190.14,387.57,188.13,385.56,185.66,385.56"/>
<path class="st0" d="M176.71,397.88c-2.47,0-4.48,2.01-4.48,4.48c0,2.47,2.01,4.48,4.48,4.48s4.48-2.01,4.48-4.48
	C181.19,399.89,179.18,397.88,176.71,397.88"/>
<path class="st0" d="M164.98,407.58c-2.48,0-4.48,2.01-4.48,4.48s2,4.48,4.48,4.48c2.48,0,4.48-2.01,4.48-4.48
	S167.45,407.58,164.98,407.58"/>
<path class="st0" d="M151.2,414.07c-2.47,0-4.48,2.01-4.48,4.48c0,2.48,2.01,4.48,4.48,4.48c2.48,0,4.48-2.01,4.48-4.48
	C155.68,416.07,153.67,414.07,151.2,414.07"/>
<path class="st0" d="M136.24,416.95c-2.46,0-4.45,1.99-4.45,4.45c0,2.46,1.99,4.45,4.45,4.45s4.45-1.99,4.45-4.45
	C140.69,418.94,138.7,416.95,136.24,416.95"/>
<path class="st0" d="M121.05,416c-2.46,0-4.44,1.99-4.44,4.45c0,2.46,1.99,4.45,4.44,4.45c2.46,0,4.45-1.99,4.45-4.45
	C125.49,417.99,123.51,416,121.05,416"/>
<path class="st0" d="M106.57,411.29c-2.46,0-4.45,1.99-4.45,4.44c0,2.46,1.99,4.45,4.45,4.45c2.45,0,4.45-1.99,4.45-4.45
	C111.02,413.29,109.02,411.29,106.57,411.29"/>
<path class="st0" d="M93.71,403.17c-2.44,0-4.41,1.98-4.41,4.41s1.97,4.41,4.41,4.41c2.44,0,4.41-1.97,4.41-4.41
	S96.15,403.17,93.71,403.17"/>
<path class="st0" d="M83.29,392.07c-2.44,0-4.41,1.98-4.41,4.41s1.98,4.41,4.41,4.41s4.41-1.97,4.41-4.41S85.73,392.07,83.29,392.07
	"/>
<path class="st0" d="M75.95,378.76c-2.42,0-4.38,1.96-4.38,4.38s1.96,4.38,4.38,4.38c2.42,0,4.38-1.96,4.38-4.38
	S78.37,378.76,75.95,378.76"/>
<path class="st0" d="M72.17,364.01c-2.42,0-4.38,1.96-4.38,4.38s1.96,4.38,4.38,4.38c2.42,0,4.38-1.96,4.38-4.38
	S74.59,364.01,72.17,364.01"/>
<path class="st0" d="M72.17,348.82c-2.4,0-4.35,1.95-4.35,4.35c0,2.4,1.95,4.35,4.35,4.35c2.4,0,4.35-1.95,4.35-4.35
	C76.51,350.77,74.57,348.82,72.17,348.82"/>
<path class="st0" d="M75.95,334.07c-2.4,0-4.35,1.95-4.35,4.35c0,2.4,1.95,4.35,4.35,4.35c2.4,0,4.35-1.95,4.35-4.35
	C80.3,336.02,78.36,334.07,75.95,334.07"/>
<path class="st0" d="M83.29,320.73c-2.4,0-4.35,1.95-4.35,4.35c0,2.4,1.95,4.35,4.35,4.35s4.35-1.95,4.35-4.35
	C87.64,322.68,85.69,320.73,83.29,320.73"/>
<path class="st0" d="M93.71,309.63c-2.4,0-4.35,1.95-4.35,4.35c0,2.4,1.95,4.35,4.35,4.35c2.4,0,4.35-1.95,4.35-4.35
	C98.06,311.58,96.11,309.63,93.71,309.63"/>
<path class="st0" d="M106.57,301.47c-2.4,0-4.35,1.95-4.35,4.35c0,2.4,1.95,4.35,4.35,4.35c2.4,0,4.35-1.95,4.35-4.35
	C110.91,303.42,108.97,301.47,106.57,301.47"/>
<path class="st0" d="M121.05,296.77c-2.4,0-4.35,1.95-4.35,4.35c0,2.4,1.95,4.34,4.35,4.34c2.4,0,4.35-1.95,4.35-4.34
	C125.39,298.72,123.45,296.77,121.05,296.77"/>
<path class="st0" d="M136.24,295.78c-2.42,0-4.38,1.96-4.38,4.38c0,2.42,1.96,4.38,4.38,4.38c2.42,0,4.38-1.96,4.38-4.38
	C140.62,297.74,138.66,295.78,136.24,295.78"/>
<path class="st0" d="M151.2,298.63c-2.42,0-4.38,1.96-4.38,4.38s1.96,4.38,4.38,4.38c2.42,0,4.38-1.96,4.38-4.38
	S153.62,298.63,151.2,298.63"/>
<path class="st0" d="M164.98,305.12c-2.42,0-4.38,1.96-4.38,4.38s1.96,4.38,4.38,4.38c2.42,0,4.38-1.96,4.38-4.38
	S167.39,305.12,164.98,305.12"/>
<path class="st0" d="M176.71,314.79c-2.44,0-4.41,1.98-4.41,4.41c0,2.44,1.98,4.41,4.41,4.41c2.44,0,4.41-1.97,4.41-4.41
	C181.12,316.77,179.15,314.79,176.71,314.79"/>
<path class="st0" d="M185.66,327.11c-2.44,0-4.41,1.97-4.41,4.41s1.98,4.41,4.41,4.41s4.41-1.98,4.41-4.41
	S188.1,327.11,185.66,327.11"/>
<path class="st0" d="M191.26,341.23c-2.46,0-4.45,1.99-4.45,4.44c0,2.46,1.99,4.45,4.45,4.45c2.46,0,4.44-1.99,4.44-4.45
	C195.71,343.22,193.72,341.23,191.26,341.23"/>
<path class="st0" d="M205.32,357.41c-1.86,0-3.37,1.51-3.37,3.37c0,1.86,1.51,3.37,3.37,3.37c1.86,0,3.37-1.51,3.37-3.37
	C208.69,358.92,207.18,357.41,205.32,357.41"/>
<path class="st0" d="M203.73,372.57c-1.86,0-3.37,1.51-3.37,3.37s1.51,3.37,3.37,3.37c1.86,0,3.37-1.51,3.37-3.37
	S205.59,372.57,203.73,372.57"/>
<path class="st0" d="M199.02,387.06c-1.86,0-3.37,1.51-3.37,3.37c0,1.86,1.51,3.37,3.37,3.37c1.86,0,3.37-1.51,3.37-3.37
	C202.39,388.57,200.88,387.06,199.02,387.06"/>
<path class="st0" d="M191.4,400.26c-1.86,0-3.37,1.51-3.37,3.37c0,1.86,1.51,3.37,3.37,3.37c1.86,0,3.37-1.51,3.37-3.37
	C194.77,401.76,193.26,400.26,191.4,400.26"/>
<path class="st0" d="M181.2,411.58c-1.86,0-3.37,1.51-3.37,3.37c0,1.86,1.51,3.37,3.37,3.37c1.86,0,3.37-1.51,3.37-3.37
	C184.57,413.09,183.06,411.58,181.2,411.58"/>
<path class="st0" d="M168.88,420.54c-1.86,0-3.37,1.51-3.37,3.37c0,1.86,1.51,3.37,3.37,3.37c1.86,0,3.37-1.51,3.37-3.37
	C172.24,422.05,170.73,420.54,168.88,420.54"/>
<path class="st0" d="M154.95,426.73c-1.86,0-3.37,1.51-3.37,3.37c0,1.86,1.51,3.37,3.37,3.37c1.86,0,3.37-1.51,3.37-3.37
	C158.32,428.24,156.82,426.73,154.95,426.73"/>
<path class="st0" d="M140.05,429.9c-1.86,0-3.37,1.51-3.37,3.37c0,1.86,1.51,3.37,3.37,3.37c1.86,0,3.37-1.51,3.37-3.37
	C143.42,431.41,141.91,429.9,140.05,429.9"/>
<path class="st0" d="M124.81,429.94c-1.84,0-3.33,1.49-3.33,3.33c0,1.84,1.49,3.34,3.33,3.34c1.84,0,3.34-1.49,3.34-3.34
	C128.15,431.43,126.65,429.94,124.81,429.94"/>
<path class="st0" d="M109.91,426.77c-1.84,0-3.34,1.49-3.34,3.33c0,1.84,1.49,3.34,3.34,3.34c1.84,0,3.34-1.5,3.34-3.34
	C113.24,428.26,111.75,426.77,109.91,426.77"/>
<path class="st0" d="M95.99,420.57c-1.84,0-3.33,1.49-3.33,3.33c0,1.84,1.49,3.34,3.33,3.34c1.84,0,3.34-1.5,3.34-3.34
	C99.32,422.06,97.83,420.57,95.99,420.57"/>
<path class="st0" d="M83.66,411.65c-1.82,0-3.3,1.48-3.3,3.3c0,1.82,1.48,3.3,3.3,3.3c1.82,0,3.3-1.48,3.3-3.3
	C86.96,413.13,85.48,411.65,83.66,411.65"/>
<path class="st0" d="M73.46,400.32c-1.82,0-3.3,1.48-3.3,3.3c0,1.82,1.48,3.3,3.3,3.3c1.82,0,3.3-1.48,3.3-3.3
	C76.76,401.8,75.29,400.32,73.46,400.32"/>
<path class="st0" d="M65.84,387.16c-1.8,0-3.27,1.46-3.27,3.27c0,1.8,1.46,3.27,3.27,3.27c1.81,0,3.27-1.46,3.27-3.27
	C69.11,388.62,67.65,387.16,65.84,387.16"/>
<path class="st0" d="M61.13,372.67c-1.8,0-3.27,1.46-3.27,3.27c0,1.81,1.46,3.27,3.27,3.27c1.8,0,3.27-1.46,3.27-3.27
	C64.4,374.13,62.94,372.67,61.13,372.67"/>
<path class="st0" d="M59.54,357.51c-1.81,0-3.27,1.46-3.27,3.27c0,1.81,1.46,3.27,3.27,3.27c1.8,0,3.27-1.46,3.27-3.27
	C62.81,358.97,61.35,357.51,59.54,357.51"/>
<path class="st0" d="M61.13,342.36c-1.8,0-3.27,1.46-3.27,3.27c0,1.81,1.46,3.27,3.27,3.27c1.8,0,3.27-1.46,3.27-3.27
	C64.4,343.82,62.94,342.36,61.13,342.36"/>
<path class="st0" d="M65.84,327.9c-1.79,0-3.23,1.45-3.23,3.23s1.45,3.23,3.23,3.23c1.79,0,3.24-1.45,3.24-3.23
	S67.63,327.9,65.84,327.9"/>
<path class="st0" d="M73.46,314.7c-1.79,0-3.24,1.45-3.24,3.23c0,1.79,1.45,3.24,3.24,3.24c1.79,0,3.23-1.45,3.23-3.24
	C76.7,316.15,75.25,314.7,73.46,314.7"/>
<path class="st0" d="M83.66,303.38c-1.79,0-3.23,1.45-3.23,3.23c0,1.79,1.45,3.24,3.23,3.24c1.79,0,3.24-1.45,3.24-3.24
	C86.89,304.83,85.44,303.38,83.66,303.38"/>
<path class="st0" d="M95.99,294.42c-1.79,0-3.24,1.45-3.24,3.23c0,1.79,1.45,3.24,3.24,3.24c1.79,0,3.23-1.45,3.23-3.24
	C99.22,295.87,97.77,294.42,95.99,294.42"/>
<path class="st0" d="M109.91,288.22c-1.79,0-3.24,1.45-3.24,3.23c0,1.79,1.45,3.24,3.24,3.24c1.79,0,3.23-1.45,3.23-3.24
	C113.14,289.67,111.69,288.22,109.91,288.22"/>
<path class="st0" d="M124.81,285.02c-1.8,0-3.27,1.46-3.27,3.27c0,1.8,1.46,3.27,3.27,3.27c1.81,0,3.27-1.46,3.27-3.27
	C128.08,286.49,126.62,285.02,124.81,285.02"/>
<path class="st0" d="M140.05,285.02c-1.8,0-3.27,1.46-3.27,3.27c0,1.8,1.46,3.27,3.27,3.27c1.8,0,3.27-1.46,3.27-3.27
	C143.32,286.49,141.85,285.02,140.05,285.02"/>
<path class="st0" d="M154.95,288.19c-1.8,0-3.27,1.46-3.27,3.27c0,1.81,1.46,3.27,3.27,3.27c1.8,0,3.27-1.46,3.27-3.27
	C158.22,289.65,156.76,288.19,154.95,288.19"/>
<path class="st0" d="M168.88,294.36c-1.82,0-3.3,1.48-3.3,3.3c0,1.83,1.48,3.3,3.3,3.3c1.82,0,3.3-1.48,3.3-3.3
	C172.17,295.83,170.7,294.36,168.88,294.36"/>
<path class="st0" d="M181.2,303.31c-1.82,0-3.3,1.48-3.3,3.3c0,1.82,1.48,3.3,3.3,3.3c1.82,0,3.3-1.48,3.3-3.3
	C184.5,304.79,183.03,303.31,181.2,303.31"/>
<path class="st0" d="M191.4,314.6c-1.84,0-3.33,1.49-3.33,3.34c0,1.84,1.49,3.33,3.33,3.33c1.84,0,3.34-1.49,3.34-3.33
	C194.74,316.1,193.24,314.6,191.4,314.6"/>
<path class="st0" d="M199.02,327.8c-1.84,0-3.34,1.49-3.34,3.34c0,1.84,1.49,3.33,3.34,3.33c1.84,0,3.34-1.49,3.34-3.33
	C202.35,329.29,200.86,327.8,199.02,327.8"/>
<path class="st0" d="M203.73,342.29c-1.84,0-3.33,1.49-3.33,3.33c0,1.84,1.49,3.34,3.33,3.34c1.84,0,3.34-1.49,3.34-3.34
	C207.06,343.78,205.57,342.29,203.73,342.29"/>
<path class="st0" d="M217.47,358.52c-1.25,0-2.26,1.01-2.26,2.26c0,1.25,1.01,2.26,2.26,2.26c1.25,0,2.26-1.01,2.26-2.26
	C219.72,359.53,218.72,358.52,217.47,358.52"/>
<path class="st0" d="M216.1,373.71c-1.25,0-2.26,1.01-2.26,2.26s1.01,2.26,2.26,2.26c1.25,0,2.26-1.01,2.26-2.26
	S217.35,373.71,216.1,373.71"/>
<path class="st0" d="M212.05,388.4c-1.25,0-2.26,1.01-2.26,2.26c0,1.24,1.01,2.26,2.26,2.26s2.26-1.01,2.26-2.26
	C214.3,389.41,213.29,388.4,212.05,388.4"/>
<path class="st0" d="M205.43,402.14c-1.25,0-2.26,1.01-2.26,2.26c0,1.25,1.01,2.26,2.26,2.26s2.26-1.01,2.26-2.26
	C207.69,403.15,206.68,402.14,205.43,402.14"/>
<path class="st0" d="M196.47,414.47c-1.25,0-2.26,1.01-2.26,2.26s1.01,2.26,2.26,2.26s2.26-1.01,2.26-2.26
	S197.72,414.47,196.47,414.47"/>
<path class="st0" d="M185.45,425.01c-1.25,0-2.26,1.01-2.26,2.26c0,1.25,1.01,2.26,2.26,2.26c1.25,0,2.26-1.01,2.26-2.26
	C187.71,426.02,186.7,425.01,185.45,425.01"/>
<path class="st0" d="M172.73,433.41c-1.25,0-2.26,1.01-2.26,2.26s1.01,2.26,2.26,2.26c1.25,0,2.26-1.01,2.26-2.26
	S173.97,433.41,172.73,433.41"/>
<path class="st0" d="M158.71,439.4c-1.25,0-2.26,1.01-2.26,2.26c0,1.25,1.01,2.26,2.26,2.26c1.25,0,2.26-1.01,2.26-2.26
	C160.97,440.41,159.95,439.4,158.71,439.4"/>
<path class="st0" d="M143.85,442.79c-1.25,0-2.26,1.01-2.26,2.26c0,1.25,1.01,2.26,2.26,2.26c1.25,0,2.26-1.01,2.26-2.26
	C146.1,443.8,145.09,442.79,143.85,442.79"/>
<path class="st0" d="M128.62,443.48c-1.25,0-2.26,1.01-2.26,2.26s1.01,2.26,2.26,2.26c1.25,0,2.26-1.01,2.26-2.26
	S129.86,443.48,128.62,443.48"/>
<path class="st0" d="M113.51,441.46c-1.23,0-2.23,1-2.23,2.23c0,1.23,1,2.22,2.23,2.22c1.23,0,2.22-0.99,2.22-2.22
	C115.73,442.46,114.74,441.46,113.51,441.46"/>
<path class="st0" d="M99.01,436.75c-1.23,0-2.23,1-2.23,2.22c0,1.23,1,2.22,2.23,2.22c1.23,0,2.22-0.99,2.22-2.22
	C101.23,437.75,100.24,436.75,99.01,436.75"/>
<path class="st0" d="M85.58,429.53c-1.23,0-2.22,1-2.22,2.22c0,1.23,0.99,2.22,2.22,2.22c1.23,0,2.22-1,2.22-2.22
	C87.81,430.52,86.81,429.53,85.58,429.53"/>
<path class="st0" d="M73.67,420.02c-1.23,0-2.22,1-2.22,2.22s0.99,2.22,2.22,2.22c1.23,0,2.22-0.99,2.22-2.22
	S74.89,420.02,73.67,420.02"/>
<path class="st0" d="M63.63,408.57c-1.21,0-2.19,0.98-2.19,2.19c0,1.21,0.98,2.19,2.19,2.19c1.21,0,2.19-0.98,2.19-2.19
	C65.82,409.55,64.84,408.57,63.63,408.57"/>
<path class="st0" d="M55.81,395.49c-1.21,0-2.19,0.98-2.19,2.19c0,1.21,0.98,2.19,2.19,2.19c1.21,0,2.19-0.98,2.19-2.19
	C58,396.47,57.02,395.49,55.81,395.49"/>
<path class="st0" d="M50.46,381.25c-1.19,0-2.16,0.97-2.16,2.16c0,1.19,0.97,2.16,2.16,2.16c1.19,0,2.16-0.97,2.16-2.16
	C52.61,382.21,51.65,381.25,50.46,381.25"/>
<path class="st0" d="M47.73,366.25c-1.19,0-2.16,0.97-2.16,2.16c0,1.19,0.97,2.16,2.16,2.16c1.19,0,2.16-0.97,2.16-2.16
	C49.89,367.21,48.93,366.25,47.73,366.25"/>
<path class="st0" d="M47.73,351c-1.19,0-2.16,0.97-2.16,2.16c0,1.19,0.97,2.16,2.16,2.16c1.19,0,2.16-0.97,2.16-2.16
	C49.89,351.97,48.93,351,47.73,351"/>
<path class="st0" d="M50.46,336c-1.19,0-2.16,0.97-2.16,2.16c0,1.19,0.97,2.16,2.16,2.16c1.19,0,2.16-0.97,2.16-2.16
	C52.61,336.97,51.65,336,50.46,336"/>
<path class="st0" d="M55.81,321.73c-1.19,0-2.16,0.97-2.16,2.16c0,1.19,0.97,2.16,2.16,2.16c1.19,0,2.16-0.97,2.16-2.16
	C57.97,322.69,57.01,321.73,55.81,321.73"/>
<path class="st0" d="M63.63,308.68c-1.17,0-2.12,0.95-2.12,2.12c0,1.17,0.95,2.12,2.12,2.12c1.17,0,2.12-0.95,2.12-2.12
	C65.76,309.63,64.81,308.68,63.63,308.68"/>
<path class="st0" d="M73.67,297.16c-1.19,0-2.16,0.97-2.16,2.16c0,1.19,0.97,2.16,2.16,2.16c1.19,0,2.16-0.97,2.16-2.16
	C75.82,298.13,74.85,297.16,73.67,297.16"/>
<path class="st0" d="M85.58,287.66c-1.19,0-2.16,0.97-2.16,2.16s0.97,2.16,2.16,2.16c1.19,0,2.16-0.97,2.16-2.16
	S86.77,287.66,85.58,287.66"/>
<path class="st0" d="M99.01,280.43c-1.19,0-2.16,0.97-2.16,2.16c0,1.19,0.97,2.16,2.16,2.16c1.19,0,2.16-0.97,2.16-2.16
	C101.17,281.39,100.2,280.43,99.01,280.43"/>
<path class="st0" d="M113.51,275.72c-1.19,0-2.16,0.97-2.16,2.16c0,1.19,0.97,2.16,2.16,2.16c1.19,0,2.16-0.97,2.16-2.16
	C115.66,276.68,114.7,275.72,113.51,275.72"/>
<path class="st0" d="M128.62,273.67c-1.19,0-2.16,0.97-2.16,2.16c0,1.19,0.97,2.16,2.16,2.16c1.19,0,2.16-0.97,2.16-2.16
	C130.77,274.64,129.81,273.67,128.62,273.67"/>
<path class="st0" d="M143.85,274.36c-1.19,0-2.16,0.97-2.16,2.16c0,1.19,0.97,2.15,2.16,2.15c1.19,0,2.16-0.96,2.16-2.15
	C146,275.32,145.04,274.36,143.85,274.36"/>
<path class="st0" d="M158.71,277.75c-1.19,0-2.16,0.97-2.16,2.16c0,1.19,0.97,2.16,2.16,2.16c1.19,0,2.16-0.97,2.16-2.16
	C160.86,278.71,159.9,277.75,158.71,277.75"/>
<path class="st0" d="M172.73,283.71c-1.21,0-2.19,0.98-2.19,2.19s0.98,2.19,2.19,2.19c1.21,0,2.19-0.98,2.19-2.19
	S173.93,283.71,172.73,283.71"/>
<path class="st0" d="M185.45,292.11c-1.21,0-2.19,0.98-2.19,2.19c0,1.21,0.98,2.19,2.19,2.19c1.21,0,2.19-0.98,2.19-2.19
	C187.64,293.09,186.66,292.11,185.45,292.11"/>
<path class="st0" d="M196.47,302.61c-1.23,0-2.23,1-2.23,2.22c0,1.23,1,2.22,2.23,2.22c1.23,0,2.22-1,2.22-2.22
	C198.69,303.6,197.7,302.61,196.47,302.61"/>
<path class="st0" d="M205.43,314.94c-1.23,0-2.22,0.99-2.22,2.22c0,1.23,0.99,2.22,2.22,2.22c1.23,0,2.22-0.99,2.22-2.22
	C207.65,315.94,206.66,314.94,205.43,314.94"/>
<path class="st0" d="M212.05,328.68c-1.23,0-2.22,0.99-2.22,2.22c0,1.23,0.99,2.22,2.22,2.22s2.22-0.99,2.22-2.22
	C214.27,329.67,213.27,328.68,212.05,328.68"/>
<path class="st0" d="M216.1,343.37c-1.23,0-2.22,0.99-2.22,2.22c0,1.23,0.99,2.22,2.22,2.22c1.23,0,2.22-0.99,2.22-2.22
	C218.33,344.37,217.33,343.37,216.1,343.37"/>
<path class="st0" d="M229.61,359.64c-0.63,0-1.15,0.51-1.15,1.15c0,0.63,0.51,1.15,1.15,1.15c0.63,0,1.15-0.51,1.15-1.15
	C230.76,360.15,230.25,359.64,229.61,359.64"/>
<path class="st0" d="M228.42,374.84c-0.63,0-1.15,0.51-1.15,1.15c0,0.63,0.51,1.15,1.15,1.15c0.63,0,1.15-0.51,1.15-1.15
	C229.56,375.35,229.05,374.84,228.42,374.84"/>
<path class="st0" d="M224.86,389.67c-0.63,0-1.15,0.51-1.15,1.15c0,0.63,0.51,1.15,1.15,1.15c0.63,0,1.15-0.51,1.15-1.15
	C226.01,390.18,225.49,389.67,224.86,389.67"/>
<path class="st0" d="M219.02,403.76c-0.63,0-1.15,0.51-1.15,1.15s0.51,1.14,1.15,1.14c0.63,0,1.15-0.51,1.15-1.14
	S219.66,403.76,219.02,403.76"/>
<path class="st0" d="M211.06,416.76c-0.63,0-1.15,0.51-1.15,1.14c0,0.63,0.51,1.15,1.15,1.15c0.63,0,1.15-0.51,1.15-1.15
	C212.2,417.27,211.69,416.76,211.06,416.76"/>
<path class="st0" d="M201.15,428.32c-0.65,0-1.18,0.53-1.18,1.18c0,0.65,0.53,1.18,1.18,1.18c0.65,0,1.18-0.53,1.18-1.18
	C202.33,428.85,201.8,428.32,201.15,428.32"/>
<path class="st0" d="M189.55,438.26c-0.63,0-1.15,0.51-1.15,1.15c0,0.63,0.51,1.14,1.15,1.14s1.15-0.51,1.15-1.14
	C190.7,438.77,190.19,438.26,189.55,438.26"/>
<path class="st0" d="M176.55,446.23c-0.63,0-1.15,0.51-1.15,1.15c0,0.63,0.51,1.15,1.15,1.15c0.63,0,1.14-0.51,1.14-1.15
	C177.7,446.74,177.19,446.23,176.55,446.23"/>
<path class="st0" d="M162.46,452.06c-0.63,0-1.15,0.51-1.15,1.15c0,0.63,0.51,1.15,1.15,1.15c0.63,0,1.15-0.51,1.15-1.15
	C163.61,452.58,163.1,452.06,162.46,452.06"/>
<path class="st0" d="M147.63,455.62c-0.63,0-1.15,0.51-1.15,1.15c0,0.63,0.51,1.14,1.15,1.14s1.15-0.51,1.15-1.14
	C148.78,456.14,148.27,455.62,147.63,455.62"/>
<path class="st0" d="M132.43,456.82c-0.63,0-1.15,0.51-1.15,1.15c0,0.63,0.51,1.14,1.15,1.14s1.15-0.51,1.15-1.14
	C133.58,457.33,133.06,456.82,132.43,456.82"/>
<path class="st0" d="M117.23,455.62c-0.63,0-1.15,0.51-1.15,1.15c0,0.63,0.51,1.14,1.15,1.14c0.63,0,1.14-0.51,1.14-1.14
	C118.37,456.14,117.86,455.62,117.23,455.62"/>
<path class="st0" d="M102.4,452.06c-0.63,0-1.15,0.51-1.15,1.15c0,0.63,0.51,1.15,1.15,1.15c0.63,0,1.15-0.51,1.15-1.15
	C103.54,452.58,103.03,452.06,102.4,452.06"/>
<path class="st0" d="M88.31,446.26c-0.61,0-1.11,0.5-1.11,1.11c0,0.62,0.5,1.11,1.11,1.11c0.61,0,1.11-0.5,1.11-1.11
	C89.42,446.76,88.92,446.26,88.31,446.26"/>
<path class="st0" d="M75.31,438.29c-0.61,0-1.11,0.5-1.11,1.11c0,0.61,0.5,1.11,1.11,1.11s1.11-0.5,1.11-1.11
	C76.42,438.79,75.92,438.29,75.31,438.29"/>
<path class="st0" d="M63.71,428.39c-0.62,0-1.11,0.5-1.11,1.11c0,0.61,0.5,1.11,1.11,1.11c0.61,0,1.11-0.5,1.11-1.11
	C64.82,428.89,64.32,428.39,63.71,428.39"/>
<path class="st0" d="M53.81,416.83c-0.59,0-1.08,0.48-1.08,1.08c0,0.59,0.48,1.08,1.08,1.08c0.59,0,1.08-0.48,1.08-1.08
	C54.89,417.31,54.4,416.83,53.81,416.83"/>
<path class="st0" d="M45.84,403.82c-0.59,0-1.08,0.48-1.08,1.08c0,0.6,0.48,1.08,1.08,1.08c0.59,0,1.08-0.48,1.08-1.08
	C46.92,404.31,46.43,403.82,45.84,403.82"/>
<path class="st0" d="M40,389.73c-0.6,0-1.08,0.48-1.08,1.08c0,0.59,0.48,1.08,1.08,1.08c0.59,0,1.08-0.48,1.08-1.08
	C41.08,390.22,40.6,389.73,40,389.73"/>
<path class="st0" d="M36.44,374.94c-0.57,0-1.04,0.47-1.04,1.04c0,0.58,0.47,1.05,1.04,1.05c0.58,0,1.05-0.47,1.05-1.05
	C37.49,375.41,37.02,374.94,36.44,374.94"/>
<path class="st0" d="M35.25,359.74c-0.58,0-1.04,0.47-1.04,1.04c0,0.58,0.47,1.05,1.04,1.05c0.58,0,1.04-0.47,1.04-1.05
	C36.29,360.2,35.82,359.74,35.25,359.74"/>
<path class="st0" d="M36.44,344.53c-0.57,0-1.04,0.47-1.04,1.04c0,0.58,0.47,1.05,1.04,1.05c0.58,0,1.05-0.47,1.05-1.05
	C37.49,345,37.02,344.53,36.44,344.53"/>
<path class="st0" d="M40,329.7c-0.58,0-1.04,0.47-1.04,1.04c0,0.58,0.47,1.04,1.04,1.04c0.58,0,1.04-0.47,1.04-1.04
	C41.05,330.17,40.58,329.7,40,329.7"/>
<path class="st0" d="M45.84,315.61c-0.58,0-1.04,0.47-1.04,1.04c0,0.58,0.47,1.04,1.04,1.04c0.58,0,1.04-0.47,1.04-1.04
	C46.88,316.08,46.41,315.61,45.84,315.61"/>
<path class="st0" d="M53.81,302.61c-0.58,0-1.04,0.47-1.04,1.04c0,0.58,0.47,1.04,1.04,1.04c0.58,0,1.04-0.47,1.04-1.04
	C54.85,303.08,54.38,302.61,53.81,302.61"/>
<path class="st0" d="M63.71,291.02c-0.58,0-1.04,0.47-1.04,1.04s0.47,1.05,1.04,1.05c0.57,0,1.04-0.47,1.04-1.05
	S64.29,291.02,63.71,291.02"/>
<path class="st0" d="M75.31,281.11c-0.58,0-1.04,0.47-1.04,1.04s0.47,1.04,1.04,1.04c0.58,0,1.04-0.47,1.04-1.04
	S75.88,281.11,75.31,281.11"/>
<path class="st0" d="M88.31,273.14c-0.58,0-1.04,0.47-1.04,1.04c0,0.58,0.47,1.05,1.04,1.05c0.58,0,1.04-0.47,1.04-1.05
	C89.35,273.61,88.89,273.14,88.31,273.14"/>
<path class="st0" d="M102.4,267.31c-0.57,0-1.04,0.47-1.04,1.04s0.47,1.04,1.04,1.04c0.58,0,1.05-0.47,1.05-1.04
	S102.98,267.31,102.4,267.31"/>
<path class="st0" d="M117.23,263.75c-0.58,0-1.04,0.47-1.04,1.04c0,0.58,0.47,1.04,1.04,1.04c0.58,0,1.04-0.47,1.04-1.04
	C118.27,264.22,117.81,263.75,117.23,263.75"/>
<path class="st0" d="M132.43,262.55c-0.58,0-1.04,0.47-1.04,1.04s0.47,1.05,1.04,1.05s1.05-0.47,1.05-1.05
	S133.01,262.55,132.43,262.55"/>
<path class="st0" d="M147.63,263.75c-0.58,0-1.04,0.47-1.04,1.04c0,0.58,0.47,1.04,1.04,1.04c0.58,0,1.04-0.47,1.04-1.04
	C148.68,264.22,148.21,263.75,147.63,263.75"/>
<path class="st0" d="M162.46,267.27c-0.59,0-1.08,0.48-1.08,1.08c0,0.6,0.48,1.08,1.08,1.08c0.6,0,1.08-0.48,1.08-1.08
	C163.54,267.76,163.06,267.27,162.46,267.27"/>
<path class="st0" d="M176.55,273.11c-0.6,0-1.08,0.48-1.08,1.08c0,0.59,0.48,1.08,1.08,1.08c0.59,0,1.08-0.48,1.08-1.08
	C177.63,273.59,177.15,273.11,176.55,273.11"/>
<path class="st0" d="M189.55,281.08c-0.59,0-1.08,0.48-1.08,1.08c0,0.6,0.48,1.08,1.08,1.08c0.6,0,1.08-0.48,1.08-1.08
	C190.63,281.56,190.15,281.08,189.55,281.08"/>
<path class="st0" d="M201.15,290.95c-0.61,0-1.11,0.5-1.11,1.11c0,0.61,0.5,1.11,1.11,1.11c0.61,0,1.11-0.5,1.11-1.11
	C202.26,291.45,201.76,290.95,201.15,290.95"/>
<path class="st0" d="M211.06,302.54c-0.61,0-1.11,0.5-1.11,1.11c0,0.61,0.5,1.11,1.11,1.11c0.61,0,1.11-0.5,1.11-1.11
	C212.17,303.04,211.67,302.54,211.06,302.54"/>
<path class="st0" d="M219.02,315.55c-0.61,0-1.11,0.5-1.11,1.11c0,0.61,0.5,1.11,1.11,1.11c0.61,0,1.11-0.5,1.11-1.11
	C220.13,316.05,219.64,315.55,219.02,315.55"/>
<path class="st0" d="M224.86,329.6c-0.63,0-1.15,0.51-1.15,1.14c0,0.63,0.51,1.15,1.15,1.15c0.63,0,1.15-0.51,1.15-1.15
	C226.01,330.12,225.49,329.6,224.86,329.6"/>
<path class="st0" d="M228.42,344.43c-0.63,0-1.15,0.51-1.15,1.15c0,0.63,0.51,1.15,1.15,1.15c0.63,0,1.15-0.51,1.15-1.15
	C229.56,344.95,229.05,344.43,228.42,344.43"/>
<rect x="240.6" y="375.9" transform="matrix(0.7071 -0.7071 0.7071 0.7071 -195.3675 280.3169)" class="st1" width="0.19" height="0.19"/>
<rect x="237.43" y="390.82" transform="matrix(0.7119 -0.7023 0.7023 0.7119 -206.0986 279.4245)" class="st1" width="0.19" height="0.19"/>
<rect x="232.22" y="405.16" transform="matrix(0.7022 -0.7119 0.7119 0.7022 -219.3422 286.0623)" class="st0" width="0.19" height="0.19"/>
<rect x="225.03" y="418.6" transform="matrix(0.7071 -0.7071 0.7071 0.7071 -230.1296 281.8312)" class="st0" width="0.24" height="0.24"/>
<polygon class="st0" points="216.02,431.06 216.18,431.23 216.35,431.06 216.18,430.89 "/>
<rect x="205.47" y="441.91" transform="matrix(0.7071 -0.7071 0.7071 0.7071 -252.3432 274.8288)" class="st0" width="0.24" height="0.24"/>
<rect x="193.45" y="451.3" transform="matrix(0.7071 -0.7071 0.7071 0.7071 -262.5042 269.0806)" class="st0" width="0.24" height="0.24"/>
<rect x="180.26" y="458.95" transform="matrix(0.7071 -0.7071 0.7071 0.7071 -271.7673 261.977)" class="st0" width="0.19" height="0.19"/>
<rect x="166.1" y="464.64" transform="matrix(0.711 -0.7032 0.7032 0.711 -278.7878 251.2136)" class="st0" width="0.24" height="0.24"/>
<rect x="151.32" y="468.36" transform="matrix(0.7071 -0.7071 0.7071 0.7071 -286.8935 244.2667)" class="st0" width="0.19" height="0.19"/>
<rect x="105.88" y="466.77" transform="matrix(0.7071 -0.7071 0.7071 0.7071 -299.0789 211.6742)" class="st0" width="0.19" height="0.19"/>
<rect x="91.38" y="462.06" transform="matrix(0.7071 -0.7071 0.7071 0.7071 -299.9947 200.0367)" class="st0" width="0.19" height="0.19"/>
<rect x="77.67" y="455.37" transform="matrix(0.712 -0.7022 0.7022 0.712 -297.4323 185.791)" class="st0" width="0.19" height="0.19"/>
<rect x="65.02" y="446.84" transform="matrix(0.7119 -0.7023 0.7023 0.7119 -295.1136 174.4924)" class="st0" width="0.19" height="0.19"/>
<rect x="53.69" y="436.63" transform="matrix(0.7023 -0.7119 0.7119 0.7023 -294.8911 168.3051)" class="st0" width="0.19" height="0.19"/>
<rect x="43.88" y="424.95" transform="matrix(0.7071 -0.7071 0.7071 0.7071 -287.6676 155.5863)" class="st0" width="0.19" height="0.19"/>
<rect x="35.82" y="412.04" transform="matrix(0.7071 -0.7071 0.7071 0.7071 -280.8878 146.0797)" class="st0" width="0.14" height="0.14"/>
<polygon class="st0" points="29.59,398.17 29.69,398.28 29.79,398.17 29.69,398.08 "/>
<rect x="25.41" y="383.44" transform="matrix(0.7135 -0.7007 0.7007 0.7135 -261.4188 127.7451)" class="st0" width="0.14" height="0.14"/>
<polygon class="st0" points="23.26,368.41 23.36,368.51 23.47,368.41 23.36,368.31 "/>
<rect x="23.29" y="353.08" transform="matrix(0.7007 -0.7134 0.7134 0.7007 -244.9641 122.3641)" class="st0" width="0.14" height="0.14"/>
<rect x="25.41" y="337.98" transform="matrix(0.7135 -0.7007 0.7007 0.7135 -229.5553 114.7097)" class="st0" width="0.14" height="0.14"/>
<polygon class="st0" points="29.59,323.39 29.69,323.49 29.79,323.39 29.69,323.28 "/>
<polygon class="st0" points="35.79,309.45 35.89,309.55 36,309.45 35.89,309.35 "/>
<rect x="43.91" y="296.44" transform="matrix(0.6941 -0.7198 0.7198 0.6941 -199.9919 122.3483)" class="st0" width="0.14" height="0.14"/>
<rect x="53.71" y="284.76" transform="matrix(0.7072 -0.7071 0.7071 0.7072 -185.6426 121.4391)" class="st0" width="0.14" height="0.14"/>
<rect x="65.05" y="274.55" transform="matrix(0.7071 -0.7071 0.7071 0.7071 -175.1132 126.4764)" class="st0" width="0.14" height="0.14"/>
<rect x="77.69" y="266.02" transform="matrix(0.7136 -0.7006 0.7006 0.7136 -164.1478 130.6964)" class="st0" width="0.14" height="0.14"/>
<rect x="91.4" y="259.34" transform="matrix(0.7007 -0.7134 0.7134 0.7007 -157.6968 142.8992)" class="st0" width="0.14" height="0.14"/>
<rect x="105.91" y="254.62" transform="matrix(0.7135 -0.7006 0.7006 0.7135 -148.0864 147.2196)" class="st0" width="0.14" height="0.14"/>
<polygon class="st0" points="120.9,252.05 121,252.15 121.1,252.05 121,251.94 "/>
<polygon class="st0" points="136.25,251.41 136.14,251.51 136.25,251.62 136.35,251.51 "/>
<rect x="151.34" y="253.04" transform="matrix(0.7135 -0.7006 0.7006 0.7135 -133.9559 178.5891)" class="st0" width="0.14" height="0.14"/>
<rect x="166.14" y="256.73" transform="matrix(0.7135 -0.7006 0.7006 0.7135 -132.3014 190.0152)" class="st0" width="0.14" height="0.14"/>
<rect x="180.29" y="262.44" transform="matrix(0.7006 -0.7135 0.7135 0.7006 -133.3134 207.2729)" class="st0" width="0.14" height="0.14"/>
<polygon class="st0" points="193.47,270.14 193.57,270.24 193.67,270.14 193.57,270.04 "/>
<polygon class="st0" points="205.45,279.53 205.59,279.66 205.72,279.53 205.59,279.4 "/>
<polygon class="st0" points="216.05,290.5 216.18,290.64 216.32,290.5 216.18,290.37 "/>
<rect x="225.05" y="302.75" transform="matrix(0.7071 -0.7071 0.7071 0.7071 -148.1946 247.887)" class="st0" width="0.19" height="0.19"/>
<rect x="232.22" y="316.21" transform="matrix(0.7119 -0.7022 0.7022 0.7119 -155.207 254.2577)" class="st0" width="0.19" height="0.19"/>
<rect x="237.43" y="330.55" transform="matrix(0.7119 -0.7022 0.7022 0.7119 -163.7691 262.0504)" class="st1" width="0.19" height="0.19"/>
<rect x="240.61" y="345.47" transform="matrix(0.7071 -0.7071 0.7071 0.7071 -173.8474 271.3934)" class="st1" width="0.19" height="0.19"/>
<polygon class="st2" points="283.84,298.16 283.84,309.29 306.55,309.29 306.55,326.14 283.84,326.14 283.84,350.64 264.21,350.64 
	264.21,280.73 309.18,280.73 309.18,298.16 "/>
<polygon class="st2" points="364.38,333 364.38,350.64 319.51,350.64 319.51,280.73 339.23,280.73 339.23,333 "/>
<path class="st2" d="M424.85,315.69c0-10.94-7.78-18.81-18.54-18.81c-10.76,0-18.66,7.92-18.66,18.81c0,10.88,7.9,18.79,18.66,18.79
	C417.07,334.48,424.85,326.63,424.85,315.69 M367.38,315.69c0-21.37,16.21-36.73,38.92-36.73c22.66,0,38.81,15.3,38.81,36.73
	c0,21.42-16.15,36.71-38.81,36.71C383.59,352.4,367.38,337.05,367.38,315.69"/>
<path class="st2" d="M474.51,313.03h8.9c5.44,0,8.58-3.24,8.58-7.62c0-4.37-3.14-7.57-8.58-7.57h-8.9V313.03z M481.58,329.24h-7.06
	v21.39h-19.46v-69.91h30.62c15.23,0,26.28,10.13,26.28,24.74c0,8.57-4.24,15.6-11.22,19.74l14.03,25.43h-21.73L481.58,329.24z"/>
<rect x="523.27" y="280.73" class="st2" width="19.72" height="69.91"/>
<path class="st2" d="M601.8,315.63c0-10.38-6.98-17.26-17.44-17.26h-8.13V333h8.13C594.82,333,601.8,325.94,601.8,315.63
	 M621.76,315.63c0,20.4-15.15,35.01-36.48,35.01h-28.6v-69.91h28.6C606.67,280.73,621.76,295.2,621.76,315.63"/>
<path class="st2" d="M658.84,302.55l7.81,21.66H651.1L658.84,302.55z M649.34,280.73l-27.75,69.91h20.86l3.91-11.36h25.05
	l3.89,11.36h21.44l-28.37-69.91H649.34z"/>
<path class="st0" d="M256.01,419.55h3.35c0,10.97,8.52,18.08,21.34,18.08c11.69,0,19.89-6.61,19.89-16.36
	c0-11.04-9.88-13.16-20.41-15.47c-10.94-2.36-22.63-4.95-22.63-17.86c0-11.16,8.92-18.38,22.63-18.38
	c13.28,0,21.92,7.69,21.92,19.38h-3.27c0-9.85-7.52-16.22-18.71-16.22c-11.61,0-19.28,5.95-19.28,15.13
	c0,10.54,9.96,12.66,20.31,14.9c11.14,2.46,22.8,5.07,22.8,18.5c0,11.84-9.68,19.6-23.23,19.6
	C265.89,440.84,256.01,432.41,256.01,419.55"/>
<path class="st0" d="M314.91,405.27c0-20.81,14.96-35.91,35.88-35.91c15.49,0,27.6,8.41,32.43,21.98h-3.42
	c-4.68-11.71-15.34-18.77-29.01-18.77c-18.91,0-32.53,13.65-32.53,32.7c0,19.05,13.55,32.56,32.53,32.56
	c14.05,0,24.97-7.47,29.62-20h3.35c-4.75,14.42-17.1,23.2-32.96,23.2C329.8,441.04,314.91,426.1,314.91,405.27"/>
<polygon class="st0" points="437.38,436.86 437.38,440.02 398.41,440.02 398.41,370.39 436.27,370.39 436.27,373.52 401.7,373.52 
	401.7,402.09 433.66,402.09 433.66,405.18 401.7,405.18 401.7,436.86 "/>
<polygon class="st0" points="506.19,370.39 506.19,440.02 503.35,440.02 456.16,376.18 456.16,440.02 452.92,440.02 452.92,370.39 
	455.91,370.39 502.95,434.1 502.95,370.39 "/>
<polygon class="st0" points="568.42,373.5 545.47,373.5 545.47,440.02 542.17,440.02 542.17,373.5 519.22,373.5 519.22,370.39 
	568.42,370.39 "/>
<g>
</g>
<g>
</g>
<g>
</g>
<g>
</g>
<g>
</g>
<g>
</g>
<g>
</g>
<g>
</g>
<g>
</g>
<g>
</g>
<g>
</g>
<g>
</g>
<g>
</g>
<g>
</g>
<g>
</g>
</svg>
