<?xml version="1.0" encoding="utf-8"?>
<!-- Generator: Adobe Illustrator 24.0.0, SVG Export Plug-In . SVG Version: 6.00 Build 0)  -->
<svg version="1.1" id="Capa_1" xmlns="http://www.w3.org/2000/svg" xmlns:xlink="http://www.w3.org/1999/xlink" x="0px" y="0px"
	 viewBox="0 0 154.78 21.02" style="enable-background:new 0 0 154.78 21.02;" xml:space="preserve">
<style type="text/css">
	.st0{clip-path:url(#SVGID_2_);fill:#264A78;}
	.st1{clip-path:url(#SVGID_2_);fill:none;stroke:#264A78;stroke-width:0.094;}
	.st2{fill:#264A78;}
	.st3{fill:none;stroke:#264A78;stroke-width:0.094;}
	.st4{clip-path:url(#SVGID_4_);fill:#264A78;}
	.st5{clip-path:url(#SVGID_4_);fill:none;stroke:#264A78;stroke-width:0.094;}
</style>
<g>
	<defs>
		<rect id="SVGID_1_" width="154.78" height="21.02"/>
	</defs>
	<clipPath id="SVGID_2_">
		<use xlink:href="#SVGID_1_"  style="overflow:visible;"/>
	</clipPath>
	<path class="st0" d="M4.51,3.82v13.21H8.8c1.89,0,3.26-0.34,3.95-1.37c0.34-0.51,0.86-1.2,1.03-2.23s0.34-2.06,0.34-3.09
		c0-1.2-0.17-2.4-0.52-3.43c-0.34-1.03-0.69-1.72-1.37-2.23c-0.86-0.69-2.06-1.03-3.78-1.03H4.51V3.82z M0.05,0.05H8.8
		c2.23,0,3.78,0.17,5.15,0.69c2.23,0.86,3.6,2.23,4.46,4.29c0.69,1.54,0.86,3.43,0.86,5.32c0,1.89-0.34,3.6-0.86,5.15
		c-0.51,1.72-1.37,2.92-2.57,3.6c-0.86,0.52-1.55,0.86-2.57,1.03c-1.03,0.17-2.4,0.34-4.29,0.34H0.22L0.05,0.05z"/>
	<path class="st1" d="M4.51,3.82v13.21H8.8c1.89,0,3.26-0.34,3.95-1.37c0.34-0.51,0.86-1.2,1.03-2.23s0.34-2.06,0.34-3.09
		c0-1.2-0.17-2.4-0.52-3.43c-0.34-1.03-0.69-1.72-1.37-2.23c-0.86-0.69-2.06-1.03-3.78-1.03H4.51V3.82z M0.05,0.05H8.8
		c2.23,0,3.78,0.17,5.15,0.69c2.23,0.86,3.6,2.23,4.46,4.29c0.69,1.54,0.86,3.43,0.86,5.32c0,1.89-0.34,3.6-0.86,5.15
		c-0.51,1.72-1.37,2.92-2.57,3.6c-0.86,0.52-1.55,0.86-2.57,1.03c-1.03,0.17-2.4,0.34-4.29,0.34H0.22L0.05,0.05z"/>
</g>
<path class="st2" d="M28.91,5.02l2.92,7.03h-5.85L28.91,5.02z M26.33,0.22l-8.6,20.42h5.33l2.07-4.8h7.74l2.06,4.8h5.16l-8.6-20.42
	H26.33z"/>
<path class="st3" d="M28.91,5.02l-2.92,7.03h5.85L28.91,5.02z M17.73,20.64l8.6-20.42h5.16l8.6,20.42h-5.16l-2.07-4.8h-7.74
	l-2.06,4.8H17.73z"/>
<rect x="40.6" y="0.05" class="st2" width="4.4" height="20.42"/>
<rect x="40.6" y="0.05" class="st3" width="4.4" height="20.42"/>
<g>
	<defs>
		<rect id="SVGID_3_" width="154.78" height="21.02"/>
	</defs>
	<clipPath id="SVGID_4_">
		<use xlink:href="#SVGID_3_"  style="overflow:visible;"/>
	</clipPath>
	<path class="st4" d="M47.76,20.64v-3.6h9.44c1.55,0,2.58-0.17,3.09-0.34c0.69-0.34,1.03-1.2,1.03-1.89c0-1.03-0.34-1.72-1.37-2.06
		c-0.52-0.34-1.2-0.34-2.4-0.34h-3.78c-2.4,0-4.12-0.34-5.15-1.2c-0.69-0.52-1.03-1.2-1.54-2.06c-0.52-0.86-0.52-1.55-0.52-2.57
		c0-1.37,0.34-2.75,1.37-3.95c0.86-1.2,2.06-1.89,3.95-2.06c0.69-0.17,1.54-0.17,2.75-0.17h10.3v3.6h-9.27
		c-1.37,0-2.4,0.17-2.75,0.17c-0.86,0.17-1.37,0.86-1.37,2.06c0,1.03,0.34,1.55,1.03,1.89c0.51,0.17,1.37,0.34,2.57,0.34h3.26
		c1.72,0,2.92,0.17,3.78,0.34c1.37,0.51,2.4,1.37,3.09,2.57c0.34,1.03,0.69,2.06,0.69,3.09c0,1.2-0.34,2.4-0.86,3.43
		c-0.86,1.37-2.06,2.23-3.6,2.57c-0.86,0.17-1.89,0.17-3.6,0.17H47.76z"/>
	<path class="st5" d="M47.76,20.64v-3.6h9.44c1.55,0,2.58-0.17,3.09-0.34c0.69-0.34,1.03-1.2,1.03-1.89c0-1.03-0.34-1.72-1.37-2.06
		c-0.52-0.34-1.2-0.34-2.4-0.34h-3.78c-2.4,0-4.12-0.34-5.15-1.2c-0.69-0.52-1.03-1.2-1.54-2.06c-0.52-0.86-0.52-1.55-0.52-2.57
		c0-1.37,0.34-2.75,1.37-3.95c0.86-1.2,2.06-1.89,3.95-2.06c0.69-0.17,1.54-0.17,2.75-0.17h10.3v3.6h-9.27
		c-1.37,0-2.4,0.17-2.75,0.17c-0.86,0.17-1.37,0.86-1.37,2.06c0,1.03,0.34,1.55,1.03,1.89c0.51,0.17,1.37,0.34,2.57,0.34h3.26
		c1.72,0,2.92,0.17,3.78,0.34c1.37,0.51,2.4,1.37,3.09,2.57c0.34,1.03,0.69,2.06,0.69,3.09c0,1.2-0.34,2.4-0.86,3.43
		c-0.86,1.37-2.06,2.23-3.6,2.57c-0.86,0.17-1.89,0.17-3.6,0.17H47.76z"/>
	<path class="st4" d="M76.79,3.48c-2.06,0-3.43,0.69-4.29,1.89c-0.69,1.03-1.03,2.57-1.03,4.8c0,2.4,0.34,4.12,1.37,5.32
		c0.86,1.2,2.23,1.54,4.12,1.54c1.89,0,3.09-0.69,4.12-1.72c0.86-1.2,1.37-2.92,1.37-5.15c0-2.06-0.34-3.77-1.03-4.8
		C80.22,4.16,78.85,3.48,76.79,3.48 M76.79,0.05c2.06,0,3.77,0.34,5.49,1.03c1.89,0.86,3.09,2.23,3.78,4.12
		c0.69,1.54,0.86,3.43,0.86,5.32s-0.34,3.77-1.03,5.32c-0.86,1.89-2.23,3.09-4.12,3.78c-1.37,0.51-2.92,0.86-4.81,0.86
		c-2.4,0-4.29-0.34-6.01-1.37c-1.37-0.69-2.57-1.89-3.26-3.43c-0.69-1.55-1.03-3.43-1.03-5.66c0-3.77,1.03-6.69,2.92-8.24
		C71.13,0.73,73.53,0.05,76.79,0.05"/>
	<path class="st5" d="M76.79,3.48c-2.06,0-3.43,0.69-4.29,1.89c-0.69,1.03-1.03,2.57-1.03,4.8c0,2.4,0.34,4.12,1.37,5.32
		c0.86,1.2,2.23,1.54,4.12,1.54c1.89,0,3.09-0.69,4.12-1.72c0.86-1.2,1.37-2.92,1.37-5.15c0-2.06-0.34-3.77-1.03-4.8
		C80.22,4.16,78.85,3.48,76.79,3.48z M76.79,0.05c2.06,0,3.77,0.34,5.49,1.03c1.89,0.86,3.09,2.23,3.78,4.12
		c0.69,1.54,0.86,3.43,0.86,5.32s-0.34,3.77-1.03,5.32c-0.86,1.89-2.23,3.09-4.12,3.78c-1.37,0.51-2.92,0.86-4.81,0.86
		c-2.4,0-4.29-0.34-6.01-1.37c-1.37-0.69-2.57-1.89-3.26-3.43c-0.69-1.55-1.03-3.43-1.03-5.66c0-3.77,1.03-6.69,2.92-8.24
		C71.13,0.73,73.53,0.05,76.79,0.05z"/>
	<path class="st4" d="M101.06,5.67v3.1h-4.99c-1.55,0-2.93,0.34-3.44,1.2c-0.69,0.69-0.86,1.72-0.86,3.1c0,1.55,0.52,2.75,1.55,3.44
		c0.34,0.34,0.86,0.52,1.38,0.69c0.52,0.17,1.03,0.17,2.07,0.17h4.48v3.1h-5.68c-1.55,0-2.76-0.17-3.62-0.34
		c-0.86-0.34-1.72-0.86-2.41-1.55c-1.38-1.38-1.9-3.27-1.9-5.51c0-2.58,0.86-4.64,2.41-6.02c0.69-0.52,1.38-0.86,2.24-1.2
		c0.86-0.17,2.07-0.34,3.27-0.34L101.06,5.67z"/>
	<path class="st5" d="M101.06,5.67v3.1h-4.99c-1.55,0-2.93,0.34-3.44,1.2c-0.69,0.69-0.86,1.72-0.86,3.1c0,1.55,0.52,2.75,1.55,3.44
		c0.34,0.34,0.86,0.52,1.38,0.69c0.52,0.17,1.03,0.17,2.07,0.17h4.48v3.1h-5.68c-1.55,0-2.76-0.17-3.62-0.34
		c-0.86-0.34-1.72-0.86-2.41-1.55c-1.38-1.38-1.9-3.27-1.9-5.51c0-2.58,0.86-4.64,2.41-6.02c0.69-0.52,1.38-0.86,2.24-1.2
		c0.86-0.17,2.07-0.34,3.27-0.34L101.06,5.67z"/>
	<path class="st4" d="M106.24,0.05v5.49h4.3c1.2,0,2.24,0.17,2.93,0.34c0.69,0.17,1.38,0.51,1.89,1.03c0.86,0.86,1.38,2.4,1.38,4.29
		v9.27h-4.13v-8.58c0-0.86,0-1.37-0.17-1.72c-0.17-0.34-0.17-0.69-0.35-0.86c-0.34-0.34-1.2-0.69-2.41-0.69h-3.44v11.84h-4.13V0.05
		H106.24z"/>
	<path class="st5" d="M106.24,0.05v5.49h4.3c1.2,0,2.24,0.17,2.93,0.34c0.69,0.17,1.38,0.51,1.89,1.03c0.86,0.86,1.38,2.4,1.38,4.29
		v9.27h-4.13v-8.58c0-0.86,0-1.37-0.17-1.72c-0.17-0.34-0.17-0.69-0.35-0.86c-0.34-0.34-1.2-0.69-2.41-0.69h-3.44v11.84h-4.13V0.05
		H106.24z"/>
	<path class="st4" d="M131.39,11.52v3.1h-8.79c0.17,1.03,0.35,1.55,0.86,2.06c0.69,0.34,1.38,0.69,2.75,0.69h5.17v3.1h-5.51
		c-1.21,0-2.07-0.17-2.93-0.34c-0.69-0.17-1.38-0.69-2.07-1.2c-1.89-1.38-2.76-3.44-2.76-6.36c0-1.89,0.52-3.44,1.38-4.82
		c0.69-0.86,1.38-1.55,2.41-1.89c0.86-0.34,2.07-0.69,3.62-0.69h5.86v3.1h-5.51c-1.03,0-1.9,0.17-2.41,0.69
		c-0.35,0.34-0.69,1.2-0.86,2.06L131.39,11.52z"/>
	<path class="st5" d="M131.39,11.52v3.1h-8.79c0.17,1.03,0.35,1.55,0.86,2.06c0.69,0.34,1.38,0.69,2.75,0.69h5.17v3.1h-5.51
		c-1.21,0-2.07-0.17-2.93-0.34c-0.69-0.17-1.38-0.69-2.07-1.2c-1.89-1.38-2.76-3.44-2.76-6.36c0-1.89,0.52-3.44,1.38-4.82
		c0.69-0.86,1.38-1.55,2.41-1.89c0.86-0.34,2.07-0.69,3.62-0.69h5.86v3.1h-5.51c-1.03,0-1.9,0.17-2.41,0.69
		c-0.35,0.34-0.69,1.2-0.86,2.06L131.39,11.52z"/>
	<path class="st4" d="M133.12,5.67h15.27c1.37,0,2.4,0.17,3.09,0.34c0.69,0.17,1.37,0.69,1.89,1.2c0.86,1.03,1.37,2.41,1.37,4.13
		v9.63h-4.12v-8.77c0-0.69,0-1.2-0.17-1.55c-0.17-0.34-0.17-0.52-0.34-0.86c-0.34-0.34-1.03-0.69-1.89-0.69h-2.23v11.87h-4.29V9.11
		h-4.46v11.87h-4.12V5.67z"/>
	<path class="st5" d="M133.12,5.67h15.27c1.37,0,2.4,0.17,3.09,0.34c0.69,0.17,1.37,0.69,1.89,1.2c0.86,1.03,1.37,2.41,1.37,4.13
		v9.63h-4.12v-8.77c0-0.69,0-1.2-0.17-1.55c-0.17-0.34-0.17-0.52-0.34-0.86c-0.34-0.34-1.03-0.69-1.89-0.69h-2.23v11.87h-4.29V9.11
		h-4.46v11.87h-4.12V5.67z"/>
</g>
<g>
</g>
<g>
</g>
<g>
</g>
<g>
</g>
<g>
</g>
<g>
</g>
<g>
</g>
<g>
</g>
<g>
</g>
<g>
</g>
<g>
</g>
<g>
</g>
<g>
</g>
<g>
</g>
<g>
</g>
</svg>
